<svg width="464" height="117" viewBox="0 0 464 117" fill="none" xmlns="http://www.w3.org/2000/svg">
    <path d="M141.74 0.899902C142.74 0.899902 143.24 1.3999 143.24 2.3999V73.6999C143.24 74.7999 142.64 75.1999 141.64 75.2999C132.84 76.6999 128.34 76.9999 120.84 76.9999C101.44 76.9999 97.54 71.4999 97.54 49.2999C97.54 27.0999 101.44 21.2999 120.34 21.2999C126.04 21.2999 130.64 21.5999 133.64 21.9999V2.3999C133.64 1.3999 134.14 0.899902 135.14 0.899902H141.74ZM120.94 29.6999C108.54 29.6999 107.14 33.4999 107.14 49.1999C107.14 64.8999 108.44 68.5999 120.84 68.5999C124.74 68.5999 129.64 68.2999 133.64 67.7999V29.6999H120.94Z" fill="#2E3862"/>
    <path d="M200.44 47.6998V50.5998C200.44 52.5998 199.94 53.3998 196.84 53.3998H165.04C165.34 65.5998 167.64 68.5998 178.34 68.5998H194.74C195.74 68.5998 196.24 69.0998 196.24 70.0998V74.4998C196.24 75.3998 195.74 75.9998 194.84 76.0998C189.74 76.7998 184.24 76.9998 178.14 76.9998C159.34 76.9998 155.34 71.4998 155.34 49.1998C155.34 26.8998 159.34 21.2998 178.14 21.2998C196.94 21.2998 200.24 26.5998 200.44 47.6998ZM164.94 45.5998H190.84C190.64 32.8998 188.54 29.6998 178.14 29.6998C167.74 29.6998 165.14 32.8998 164.94 45.5998Z" fill="#2E3862"/>
    <path d="M256.84 44.6998V74.9998C256.84 75.9998 256.14 76.4998 255.14 76.4998H248.74C247.74 76.4998 247.24 75.9998 247.24 74.9998V45.4998C247.24 30.1998 244.24 29.6998 234.64 29.6998H220.94V74.9998C220.94 75.9998 220.44 76.4998 219.44 76.4998H212.84C211.84 76.4998 211.34 75.9998 211.34 74.9998V24.4998C211.34 23.1998 211.84 23.0998 212.84 22.8998C220.64 21.3998 228.84 21.2998 233.64 21.2998C251.54 21.2998 256.84 23.4998 256.84 44.6998Z" fill="#2E3862"/>
    <path d="M312.84 0.899902C313.84 0.899902 314.34 1.3999 314.34 2.3999V73.6999C314.34 74.7999 313.74 75.1999 312.74 75.2999C303.94 76.6999 299.44 76.9999 291.94 76.9999C272.54 76.9999 268.64 71.4999 268.64 49.2999C268.64 27.0999 272.54 21.2999 291.44 21.2999C297.14 21.2999 301.74 21.5999 304.74 21.9999V2.3999C304.74 1.3999 305.24 0.899902 306.24 0.899902H312.84ZM292.04 29.6999C279.64 29.6999 278.24 33.4999 278.24 49.1999C278.24 64.8999 279.54 68.5999 291.94 68.5999C295.84 68.5999 300.74 68.2999 304.74 67.7999V29.6999H292.04Z" fill="#2E3862"/>
    <path d="M354.94 22.3998C355.94 22.6998 356.44 23.0998 356.44 24.0998V28.2998C356.44 29.2998 355.84 29.7998 354.84 29.6998H346.14C339.24 29.6998 337.44 30.7998 337.44 35.2998V74.9998C337.44 75.9998 336.94 76.4998 335.94 76.4998H329.44C328.44 76.4998 327.94 75.9998 327.94 74.9998V32.9998C327.94 21.6998 337.94 21.2998 343.74 21.2998C346.14 21.2998 352.94 21.6998 354.94 22.3998Z" fill="#2E3862"/>
    <path d="M408.14 47.6998V50.5998C408.14 52.5998 407.64 53.3998 404.54 53.3998H372.74C373.04 65.5998 375.34 68.5998 386.04 68.5998H402.44C403.44 68.5998 403.94 69.0998 403.94 70.0998V74.4998C403.94 75.3998 403.44 75.9998 402.54 76.0998C397.44 76.7998 391.94 76.9998 385.84 76.9998C367.04 76.9998 363.04 71.4998 363.04 49.1998C363.04 26.8998 367.04 21.2998 385.84 21.2998C404.64 21.2998 407.94 26.5998 408.14 47.6998ZM372.64 45.5998H398.54C398.34 32.8998 396.24 29.6998 385.84 29.6998C375.44 29.6998 372.84 32.8998 372.64 45.5998Z" fill="#2E3862"/>
    <path d="M463.94 49.1998C463.94 71.4998 460.04 76.9998 440.74 76.9998C421.44 76.9998 417.44 71.4998 417.44 49.1998C417.44 26.8998 421.44 21.2998 440.74 21.2998C460.04 21.2998 463.94 26.8998 463.94 49.1998ZM427.04 49.1998C427.04 64.6998 428.54 68.5998 440.74 68.5998C452.94 68.5998 454.34 64.6998 454.34 49.1998C454.34 33.6998 452.84 29.6998 440.74 29.6998C428.64 29.6998 427.04 33.5998 427.04 49.1998Z" fill="#2E3862"/>
    <path d="M275.84 97.7099C276.09 97.7299 276.24 97.8799 276.24 98.1299V99.2999C276.24 99.5499 276.12 99.6699 275.86 99.6699H271.04C266.72 99.6699 265.97 101.34 265.97 107.07C265.97 112.8 266.72 114.39 271.04 114.39H274.84V107.54C274.84 107.29 274.96 107.14 275.22 107.14H276.87C277.12 107.14 277.25 107.29 277.25 107.54V114.99C277.25 115.27 277.23 115.37 277.18 115.49C276.65 116.61 273.26 116.61 271.06 116.61C264.96 116.61 263.46 114.46 263.46 107.06C263.46 99.6599 264.96 97.4399 271.06 97.4399C272.58 97.4399 274.61 97.5099 275.86 97.6899L275.84 97.7099Z" fill="#FF6136"/>
    <path d="M293.82 103.56C293.82 107.56 292.72 108.88 289.72 109.28L293.94 116C294.14 116.28 294.02 116.5 293.64 116.5H292.04C291.46 116.5 291.29 116.33 291.04 115.95L286.92 109.43H283.15V116.13C283.15 116.43 283.08 116.51 282.78 116.51H281C280.7 116.51 280.62 116.43 280.62 116.13V98.0099C280.62 97.7099 280.7 97.66 281 97.63C282.78 97.51 284.92 97.46 286.32 97.46C291.94 97.46 293.82 98.41 293.82 103.56ZM283.14 99.6799V107.28H286.09C290.21 107.28 291.26 107.11 291.26 103.61C291.26 100.11 290.21 99.69 286.09 99.69H283.14V99.6799Z" fill="#FF6136"/>
    <path d="M311.77 107.08C311.77 114.45 310.25 116.63 304.15 116.63C298.05 116.63 296.53 114.46 296.53 107.08C296.53 99.7 298.05 97.46 304.15 97.46C310.25 97.46 311.77 99.68 311.77 107.08ZM299.07 107.08C299.07 112.78 299.82 114.4 304.14 114.4C308.46 114.4 309.21 112.78 309.21 107.08C309.21 101.38 308.46 99.6799 304.14 99.6799C299.82 99.6799 299.07 101.35 299.07 107.08Z" fill="#FF6136"/>
    <path d="M329.59 97.5801C329.89 97.5801 329.97 97.6801 329.97 97.9501V107.07C329.97 114.72 328.47 116.62 322.52 116.62C316.57 116.62 315.1 114.72 315.1 107.07V97.9501C315.1 97.6801 315.18 97.5801 315.48 97.5801H317.25C317.55 97.5801 317.63 97.6801 317.63 97.9501V107.07C317.63 112.94 318.63 114.39 322.53 114.39C326.43 114.39 327.45 112.94 327.45 107.07V97.9501C327.45 97.6801 327.52 97.5801 327.83 97.5801H329.6H329.59Z" fill="#FF6136"/>
    <path d="M347.12 103.56C347.12 108.81 345.24 109.43 339.62 109.43H336.45V116.13C336.45 116.43 336.38 116.51 336.08 116.51H334.3C334 116.51 333.92 116.43 333.92 116.13V98.0099C333.92 97.7099 334 97.66 334.3 97.63C336.08 97.51 338.22 97.46 339.62 97.46C345.24 97.46 347.12 98.41 347.12 103.56ZM336.44 99.6799V107.28H339.39C343.51 107.28 344.56 107.11 344.56 103.61C344.56 100.11 343.51 99.69 339.39 99.69H336.44V99.6799Z" fill="#FF6136"/>
    <path d="M362.19 97.5801C362.44 97.5801 362.57 97.7001 362.57 97.9501V99.4201C362.57 99.6701 362.45 99.8001 362.19 99.8001H352.64V106.22H361.34C361.59 106.22 361.71 106.34 361.71 106.6V108.05C361.71 108.3 361.59 108.43 361.34 108.43H352.64V114.28H362.19C362.44 114.28 362.57 114.4 362.57 114.66V116.13C362.57 116.38 362.45 116.51 362.19 116.51H350.49C350.24 116.51 350.11 116.39 350.11 116.13V97.9601C350.11 97.7101 350.23 97.5901 350.49 97.5901H362.19V97.5801Z" fill="#FF6136"/>
    <path d="M382.22 97.83C382.47 97.86 382.57 97.95 382.57 98.16V99.31C382.57 99.56 382.47 99.6799 382.24 99.6799H376.62C374.42 99.6799 373.35 100.35 373.35 101.9V102.32C373.35 103.57 373.7 104.24 375.22 104.87L380.67 107.12C382.97 108.07 383.54 109.5 383.54 111.47V112.27C383.54 116.07 380.49 116.62 376.94 116.62C374.92 116.62 372.94 116.52 370.84 116.27C370.61 116.22 370.54 116.12 370.54 115.87V114.75C370.54 114.53 370.66 114.4 370.89 114.4H377.74C379.94 114.4 380.99 113.78 380.99 112.2V111.73C380.99 110.45 380.64 109.65 379.09 109.03L373.17 106.63C371.22 105.88 370.82 104.28 370.82 102.38V101.78C370.82 97.98 373.79 97.46 377.37 97.46C379.45 97.46 380.2 97.58 382.22 97.83Z" fill="#FF6136"/>
    <path d="M398.67 97.5801C398.92 97.5801 399.05 97.7001 399.05 97.9501V99.4201C399.05 99.6701 398.93 99.8001 398.67 99.8001H389.12V106.22H397.82C398.07 106.22 398.19 106.34 398.19 106.6V108.05C398.19 108.3 398.07 108.43 397.82 108.43H389.12V114.28H398.67C398.92 114.28 399.05 114.4 399.05 114.66V116.13C399.05 116.38 398.93 116.51 398.67 116.51H386.97C386.72 116.51 386.59 116.39 386.59 116.13V97.9601C386.59 97.7101 386.71 97.5901 386.97 97.5901H398.67V97.5801Z" fill="#FF6136"/>
    <path d="M415.52 103.56C415.52 108.81 413.64 109.43 408.02 109.43H404.85V116.13C404.85 116.43 404.78 116.51 404.48 116.51H402.7C402.4 116.51 402.32 116.43 402.32 116.13V98.0099C402.32 97.7099 402.4 97.66 402.7 97.63C404.48 97.51 406.62 97.46 408.02 97.46C413.64 97.46 415.52 98.41 415.52 103.56ZM404.84 99.6799V107.28H407.79C411.91 107.28 412.96 107.11 412.96 103.61C412.96 100.11 411.91 99.69 407.79 99.69H404.84V99.6799Z" fill="#FF6136"/>
    <path d="M431.07 97.5801C431.32 97.5801 431.45 97.7001 431.45 97.9501V99.4201C431.45 99.6701 431.33 99.8001 431.07 99.8001H425.4V116.12C425.4 116.37 425.28 116.5 425.02 116.5H423.25C423 116.5 422.87 116.38 422.87 116.12V99.8001H417.2C416.95 99.8001 416.83 99.6801 416.83 99.4201V97.9501C416.83 97.7001 416.95 97.5801 417.2 97.5801H431.07Z" fill="#FF6136"/>
    <path d="M445.91 97.5801C446.16 97.5801 446.29 97.7001 446.29 97.9501V99.4201C446.29 99.6701 446.17 99.8001 445.91 99.8001H436.36V106.22H445.06C445.31 106.22 445.44 106.34 445.44 106.6V108.05C445.44 108.3 445.32 108.43 445.06 108.43H436.36V114.28H445.91C446.16 114.28 446.29 114.4 446.29 114.66V116.13C446.29 116.38 446.17 116.51 445.91 116.51H434.21C433.96 116.51 433.83 116.39 433.83 116.13V97.9601C433.83 97.7101 433.95 97.5901 434.21 97.5901H445.91V97.5801Z" fill="#FF6136"/>
    <path d="M463.94 107.08C463.94 114.45 462.42 116.63 456.32 116.63C450.22 116.63 448.7 114.46 448.7 107.08C448.7 99.7 450.22 97.46 456.32 97.46C462.42 97.46 463.94 99.68 463.94 107.08ZM451.24 107.08C451.24 112.78 451.99 114.4 456.31 114.4C460.63 114.4 461.38 112.78 461.38 107.08C461.38 101.38 460.63 99.6799 456.31 99.6799C451.99 99.6799 451.24 101.35 451.24 107.08Z" fill="#FF6136"/>
    <path d="M55.2 23.55L2.85001 76.51H10.22L58.95 27.37C59.09 27.23 59.15 26.96 58.95 26.76L55.81 23.69C55.67 23.42 55.4 23.42 55.2 23.55Z" fill="#FF6136"/>
    <path d="M3.81 37.9503L41.28 0.0703125H33.91L0.130004 34.1903C-0.00999641 34.3303 -0.0699964 34.6003 0.130004 34.8003L3.2 37.8703C3.4 38.0703 3.68 38.0703 3.81 37.9403V37.9503Z" fill="#FF6136"/>
    <path d="M62.64 31.05L17.67 76.5H25.04L66.33 34.87C66.47 34.67 66.47 34.39 66.33 34.26L63.26 31.19C63.12 30.85 62.85 30.85 62.65 31.05H62.64Z" fill="#FF6136"/>
    <path d="M70.08 38.5601L32.54 76.5101H39.91L73.83 42.3201C73.97 42.1201 73.97 41.8401 73.83 41.7101L70.76 38.6401C70.56 38.4401 70.28 38.4401 70.08 38.5701V38.5601Z" fill="#FF6136"/>
    <path d="M7.57001 42.2402L10.64 45.3102C10.84 45.4502 11.12 45.4502 11.25 45.3102L56.16 -0.00976562H48.79L7.57001 41.6202C7.37001 41.8202 7.37001 42.1002 7.57001 42.2302V42.2402Z" fill="#FF6136"/>
    <path d="M14.94 49.75L18.01 52.82C18.21 52.96 18.49 52.96 18.62 52.82L70.97 0H63.6L14.94 49.14C14.8 49.34 14.8 49.62 14.94 49.75Z" fill="#FF6136"/>
</svg>
